HIERARCHY
ROOT Hips
{
	OFFSET 0.000000 0.000000 0.000000
	CHANNELS 6 Xposition Yposition Zposition Zrotation Yrotation Xrotation 
	JOINT LHipJoint
	{
		OFFSET 0.000000 0.000000 0.000000
		CHANNELS 3 Zrotation Yrotation Xrotation
		JOINT LeftUpLeg
		{
			OFFSET 1.363060 -1.794630 0.839290
			CHANNELS 3 Zrotation Yrotation Xrotation
			JOINT LeftLeg
			{
				OFFSET 2.448110 -6.726130 0.000000
				CHANNELS 3 Zrotation Yrotation Xrotation
				JOINT LeftFoot
				{
					OFFSET 2.562200 -7.039590 0.000000
					CHANNELS 3 Zrotation Yrotation Xrotation
					JOINT LeftToeBase
					{
						OFFSET 0.157640 -0.433110 2.322550
						CHANNELS 3 Zrotation Yrotation Xrotation
						End Site
						{
							OFFSET 0.000000 0.000000 0.000000
						}
					}
				}
			}
		}
	}
	JOINT RHipJoint
	{
		OFFSET 0.000000 0.000000 0.000000
		CHANNELS 3 Zrotation Yrotation Xrotation
		JOINT RightUpLeg
		{
			OFFSET -1.305520 -1.794630 0.839290
			CHANNELS 3 Zrotation Yrotation Xrotation
			JOINT RightLeg
			{
				OFFSET -2.542530 -6.985550 0.000000
				CHANNELS 3 Zrotation Yrotation Xrotation
				JOINT RightFoot
				{
					OFFSET -2.568260 -7.056230 0.000000
					CHANNELS 3 Zrotation Yrotation Xrotation
					JOINT RightToeBase
					{
						OFFSET -0.164730 -0.452590 2.363150
						CHANNELS 3 Zrotation Yrotation Xrotation
						End Site
						{
							OFFSET 0.000000 0.000000 0.000000
						}
					}
				}
			}
		}
	}
	JOINT LowerBack
	{
		OFFSET 0.000000 0.000000 0.000000
		CHANNELS 3 Zrotation Yrotation Xrotation
		JOINT Spine
		{
			OFFSET 0.028270 2.035590 -0.193380
			CHANNELS 3 Zrotation Yrotation Xrotation
			JOINT Spine1
			{
				OFFSET 0.056720 2.048850 -0.042750
				CHANNELS 3 Zrotation Yrotation Xrotation
				JOINT Neck
				{
					OFFSET 0.000000 0.000000 0.000000
					CHANNELS 3 Zrotation Yrotation Xrotation
					JOINT Neck1
					{
						OFFSET -0.054170 1.746240 0.172020
						CHANNELS 3 Zrotation Yrotation Xrotation
						JOINT Head
						{
							OFFSET 0.104070 1.761360 -0.123970
							CHANNELS 3 Zrotation Yrotation Xrotation
							End Site
							{
								OFFSET 0.000000 0.000000 0.000000
							}
						}
					}
				}
				JOINT LeftShoulder
				{
					OFFSET 0.000000 0.000000 0.000000
					CHANNELS 3 Zrotation Yrotation Xrotation
					JOINT LeftArm
					{
						OFFSET 3.362410 1.200890 -0.311210
						CHANNELS 3 Zrotation Yrotation Xrotation
						JOINT LeftForeArm
						{
							OFFSET 4.983000 -0.000000 -0.000000
							CHANNELS 3 Zrotation Yrotation Xrotation
							JOINT LeftHand
							{
								OFFSET 3.483560 -0.000000 -0.000000
								CHANNELS 3 Zrotation Yrotation Xrotation
								JOINT LeftFingerBase
								{
									OFFSET 0.000000 0.000000 0.000000
									CHANNELS 3 Zrotation Yrotation Xrotation
									JOINT LeftHandIndex1
									{
										OFFSET 0.715260 -0.000000 -0.000000
										CHANNELS 3 Zrotation Yrotation Xrotation
										End Site
										{
											OFFSET 0.000000 0.000000 0.000000
										}
									}
								}
								JOINT LThumb
								{
									OFFSET 0.000000 0.000000 0.000000
									CHANNELS 3 Zrotation Yrotation Xrotation
									End Site
									{
										OFFSET 0.000000 0.000000 0.000000
									}
								}
							}
						}
					}
				}
				JOINT RightShoulder
				{
					OFFSET 0.000000 0.000000 0.000000
					CHANNELS 3 Zrotation Yrotation Xrotation
					JOINT RightArm
					{
						OFFSET -3.136600 1.374050 -0.404650
						CHANNELS 3 Zrotation Yrotation Xrotation
						JOINT RightForeArm
						{
							OFFSET -5.241900 -0.000000 -0.000000
							CHANNELS 3 Zrotation Yrotation Xrotation
							JOINT RightHand
							{
								OFFSET -3.444170 -0.000000 -0.000000
								CHANNELS 3 Zrotation Yrotation Xrotation
								JOINT RightFingerBase
								{
									OFFSET 0.000000 0.000000 0.000000
									CHANNELS 3 Zrotation Yrotation Xrotation
									JOINT RightHandIndex1
									{
										OFFSET -0.622530 -0.000000 -0.000000
										CHANNELS 3 Zrotation Yrotation Xrotation
										End Site
										{
											OFFSET 0.000000 0.000000 0.000000
										}
									}
								}
								JOINT RThumb
								{
									OFFSET 0.000000 0.000000 0.000000
									CHANNELS 3 Zrotation Yrotation Xrotation
									End Site
									{
										OFFSET 0.000000 0.000000 0.000000
									}
								}
							}
						}
					}
				}
			}
		}
	}
}
MOTION
Frames: 11
Frame Time: 0.008333
0.118555 16.790103 0.265001 4.230438 72.234430 22.328514 -9.013266 -0.944444 1.283810 -4.319060 -3.294218 -42.263862 -1.700171 0.718541 20.354178 0.300494 1.487512 7.925678 0.680100 -0.000001 -40.793100 10.667454 -2.473131 -1.563788 5.217590 1.903893 -1.761677 1.356968 -2.491488 29.844680 0.883590 10.080460 3.609189 1.673399 0.000000 -73.079600 -8.172010 1.005386 0.906500 -2.450228 1.461400 -2.610906 -6.156365 1.396268 1.502462 8.190476 -2.906868 -4.649919 -3.315389 -0.280943 0.623604 0.000000 0.000000 0.000000 -7.746451 14.846077 1.914546 -65.291419 15.654479 -2.152148 -4.761773 -19.475186 -0.031933 -12.384733 6.680016 -0.728479 -0.114763 -0.083734 -0.000000 0.000000 0.000000 0.000000 0.000000 0.000000 0.000000 12.953450 1.730068 0.000377 57.419788 24.967333 24.080091 1.501679 64.096061 0.028574 8.191231 8.164485 0.610394 -0.069222 -0.266968 -0.000000 0.000000 0.000000 0.000000 0.000000 0.000000 0.000000 
0.282910 16.813022 0.295784 4.766510 71.712681 22.797360 -8.942376 -0.878573 1.210431 -4.694010 -3.313367 -41.736220 -1.707992 0.715151 21.106029 0.402102 2.218052 6.572646 0.825400 -0.000000 -40.936200 10.919355 -2.483186 -1.642741 4.582463 1.336174 -3.152058 1.038940 -2.733269 32.672794 0.764247 9.782135 5.638484 1.980100 -0.000000 -73.301300 -8.545500 0.948196 1.009218 -2.533764 1.423449 -2.606368 -6.209086 1.356948 1.459046 8.209252 -2.886491 -4.578380 -3.356613 -0.284255 0.636029 0.000000 0.000000 0.000000 -7.753251 14.435345 1.928994 -65.181484 14.564200 -1.963164 -4.776882 -18.839849 -0.030610 -12.269339 6.766333 -0.730055 -0.115410 -0.077305 -0.000000 0.000000 0.000000 0.000000 0.000000 0.000000 0.000000 13.123285 1.661175 -0.018124 58.324454 24.220108 24.375244 1.557293 63.193387 0.028295 8.230762 8.081672 0.606605 -0.066334 -0.259945 -0.000000 0.000000 0.000000 0.000000 0.000000 0.000000 0.000000 
0.444767 16.836850 0.324079 5.114537 71.144468 23.072986 -8.880469 -0.810288 1.141195 -5.029453 -3.295155 -41.114588 -1.717098 0.700409 21.689045 0.508122 2.935168 5.269651 0.935600 0.000000 -41.177700 11.155625 -2.463871 -1.723419 4.014840 0.747348 -4.609177 0.720329 -2.944928 35.537390 0.598875 9.132723 7.560458 2.182700 -0.000001 -73.058500 -8.841622 0.894966 1.116163 -2.600541 1.385232 -2.599644 -6.256082 1.317499 1.418843 8.199753 -2.860030 -4.509578 -3.395348 -0.287311 0.648145 0.000000 0.000000 0.000000 -7.785103 14.033763 1.941863 -65.070578 13.435761 -1.695613 -4.787848 -18.255834 -0.029218 -12.156968 6.842037 -0.730527 -0.115772 -0.070695 -0.000000 0.000000 0.000000 0.000000 0.000000 0.000000 0.000000 13.256243 1.593153 -0.034567 59.197398 23.497338 24.693102 1.612533 62.245478 0.027953 8.292602 8.003477 0.604712 -0.063942 -0.252512 -0.000000 0.000000 0.000000 0.000000 0.000000 0.000000 0.000000 
0.604371 16.861256 0.349838 5.276931 70.532475 23.159743 -8.831239 -0.740394 1.075661 -5.320561 -3.228229 -40.417690 -1.725298 0.677655 22.116356 0.614397 3.618186 4.074176 1.012400 -0.000000 -41.434100 11.370424 -2.415554 -1.803510 3.531682 0.158933 -6.113002 0.409190 -3.127187 38.408158 0.387881 8.051949 9.289799 2.213100 0.000001 -72.420600 -9.056610 0.845272 1.224380 -2.649752 1.346300 -2.591514 -6.298383 1.277418 1.380996 8.167051 -2.828836 -4.444517 -3.431919 -0.290136 0.659872 0.000000 0.000000 0.000000 -7.842453 13.637663 1.953410 -64.955892 12.287925 -1.357973 -4.794619 -17.749226 -0.027779 -12.047061 6.902401 -0.729395 -0.115888 -0.064031 -0.000000 0.000000 0.000000 0.000000 0.000000 0.000000 0.000000 13.359028 1.525802 -0.046637 60.023701 22.800101 25.036501 1.666936 61.267733 0.027552 8.374112 7.935450 0.604815 -0.061979 -0.244818 0.000000 0.000000 0.000000 0.000000 0.000000 0.000000 0.000000 
0.761878 16.886069 0.373208 5.272886 69.882376 23.077946 -8.796680 -0.669762 1.012370 -5.568323 -3.102750 -39.665389 -1.731373 0.649862 22.405654 0.716796 4.252725 3.024411 1.062000 -0.000000 -41.643399 11.560810 -2.339977 -1.881794 3.141420 -0.414857 -7.648483 0.112481 -3.283202 41.260566 0.133066 6.494712 10.744801 2.015500 -0.000001 -71.354500 -9.192914 0.797560 1.333066 -2.681899 1.305410 -2.581392 -6.336879 1.235532 1.348613 8.118693 -2.794186 -4.387795 -3.466489 -0.292682 0.669957 0.000000 0.000000 0.000000 -7.918228 13.266759 1.964103 -64.833957 11.103309 -0.945648 -4.797703 -17.318070 -0.026267 -11.935173 6.939555 -0.725658 -0.115811 -0.057285 -0.000000 0.000000 0.000000 0.000000 0.000000 0.000000 0.000000 13.440727 1.459066 -0.054730 60.791069 22.127757 25.400757 1.719659 60.276993 0.027102 8.476062 7.879303 0.607214 -0.060478 -0.236950 0.000000 0.000000 0.000000 0.000000 0.000000 0.000000 0.000000 
0.917455 16.911256 0.394456 5.123322 69.201382 22.849650 -8.778101 -0.599204 0.949334 -5.775081 -2.909744 -38.876748 -1.734733 0.619713 22.578303 0.811817 4.829068 2.137970 1.091600 -0.000000 -41.770200 11.724785 -2.240235 -1.957150 2.850764 -0.962291 -9.200742 -0.164284 -3.416940 44.066464 -0.163389 4.457206 11.862066 1.562999 -0.000000 -69.898999 -9.253006 0.750509 1.442446 -2.697541 1.261482 -2.570008 -6.372775 1.190711 1.318725 8.060399 -2.754939 -4.337643 -3.499319 -0.294995 0.678959 0.000000 0.000000 0.000000 -8.009293 12.907854 1.975074 -64.700563 9.904994 -0.474033 -4.797620 -16.986023 -0.024713 -11.820975 6.951175 -0.719019 -0.115617 -0.050580 0.000000 0.000000 0.000000 0.000000 0.000000 0.000000 0.000000 13.507245 1.394330 -0.057095 61.493051 21.472943 25.778817 1.770520 59.282970 0.026598 8.594540 7.837036 0.611810 -0.059349 -0.229012 0.000000 0.000000 0.000000 0.000000 0.000000 0.000000 0.000000 
1.071097 16.936875 0.413965 4.860251 68.498480 22.507045 -8.774984 -0.529476 0.884237 -5.947110 -2.644597 -38.068279 -1.735773 0.589048 22.655302 0.897241 5.343934 1.413046 1.108300 -0.000000 -41.804100 11.862630 -2.120222 -2.029157 2.658219 -1.477175 -10.758569 -0.416507 -3.533293 46.800966 -0.497144 1.992352 12.586505 0.868700 -0.000000 -67.951101 -9.244697 0.702186 1.553966 -2.698364 1.213057 -2.557314 -6.407094 1.141509 1.290560 7.998860 -2.707791 -4.293566 -3.530543 -0.297084 0.686937 0.000000 0.000000 0.000000 -8.106792 12.562174 1.987721 -64.551775 8.692021 0.050878 -4.795379 -16.757462 -0.023125 -11.703055 6.933846 -0.709274 -0.115392 -0.043930 0.000000 0.000000 0.000000 0.000000 0.000000 0.000000 0.000000 13.564913 1.335113 -0.054083 62.126955 20.825063 26.153625 1.819024 58.295510 0.026053 8.730025 7.805802 0.618301 -0.058613 -0.221042 0.000000 0.000000 0.000000 0.000000 0.000000 0.000000 0.000000 
1.222807 16.963060 0.432141 4.510710 67.782908 22.077224 -8.786435 -0.461211 0.814939 -6.089255 -2.305583 -37.252646 -1.735263 0.559257 22.657429 0.972084 5.797227 0.831339 1.117000 -0.000000 -41.755000 11.974815 -1.984876 -2.097283 2.561379 -1.954235 -12.310198 -0.641061 -3.636815 49.434055 -0.861018 -0.795007 12.892731 -0.010800 0.000001 -65.530000 -9.174751 0.651325 1.669097 -2.685894 1.159218 -2.544093 -6.440941 1.086954 1.259688 7.939110 -2.662623 -4.251743 -3.560639 -0.299048 0.695028 0.000000 0.000000 0.000000 -8.206975 12.191098 2.002528 -64.383980 7.513665 0.595746 -4.791433 -16.669402 -0.021573 -11.585274 6.891318 -0.697026 -0.115204 -0.037585 0.000000 0.000000 0.000000 0.000000 0.000000 0.000000 0.000000 13.621764 1.269777 -0.041734 62.690442 20.192198 26.530703 1.866301 57.306944 0.025455 8.865877 7.790592 0.625993 -0.057909 -0.213154 0.000000 0.000000 0.000000 0.000000 0.000000 0.000000 0.000000 
1.372508 16.989956 0.449504 4.107830 67.063510 21.593426 -8.809748 -0.394671 0.739539 -6.210080 -1.897518 -36.437556 -1.734589 0.530754 22.600266 1.036818 6.194754 0.364783 1.120700 0.000000 -41.647000 12.063768 -1.839676 -2.161735 2.549687 -2.392174 -13.847909 -0.836143 -3.732460 51.941098 -1.242384 -3.749400 12.770395 -0.981600 -0.000000 -62.507700 -9.055816 0.596049 1.789995 -2.662892 1.098712 -2.529549 -6.475069 1.025865 1.227792 7.887158 -2.606923 -4.212324 -3.589372 -0.300838 0.702897 0.000000 0.000000 0.000000 -8.295177 11.820690 2.021505 -64.191382 6.332929 1.173414 -4.787643 -16.696201 -0.020028 -11.467353 6.819552 -0.681977 -0.115171 -0.031380 0.000000 0.000000 0.000000 0.000000 0.000000 0.000000 0.000000 13.680360 1.211897 -0.024347 63.189962 19.550839 26.869797 1.911167 56.329527 0.024819 9.014319 7.778479 0.634883 -0.057517 -0.205271 0.000000 0.000000 0.000000 0.000000 0.000000 0.000000 0.000000 
1.520072 17.017670 0.466426 3.671413 66.348150 21.075157 -8.843008 -0.330057 0.656969 -6.312422 -1.427048 -35.627197 -1.734865 0.503922 22.497750 1.092516 6.541839 -0.020445 1.119900 -0.000001 -41.510600 12.130846 -1.690580 -2.222191 2.616152 -2.787985 -15.361570 -1.002088 -3.823403 54.291184 -1.624692 -6.692121 12.258306 -1.933500 0.000000 -59.021101 -8.895169 0.535620 1.917824 -2.631034 1.031104 -2.514105 -6.510230 0.957781 1.191923 7.845834 -2.549224 -4.171639 -3.617070 -0.302534 0.711570 0.000000 0.000000 0.000000 -8.366193 11.420794 2.044934 -63.969997 5.186224 1.756609 -4.784574 -16.861682 -0.018548 -11.355445 6.723257 -0.665124 -0.115355 -0.025507 0.000000 0.000000 0.000000 0.000000 0.000000 0.000000 0.000000 13.745698 1.151307 0.000453 63.629008 18.909449 27.170926 1.954823 55.350917 0.024137 9.161453 7.770018 0.643771 -0.057135 -0.197436 0.000000 0.000000 0.000000 0.000000 0.000000 0.000000 0.000000 
1.665396 17.046306 0.483328 3.219376 65.643933 20.540295 -8.883874 -0.267223 0.566950 -6.398995 -0.905518 -34.820881 -1.737036 0.478648 22.358570 1.140813 6.846132 -0.356191 1.114100 -0.000000 -41.378300 12.178127 -1.543173 -2.278329 2.751149 -3.139633 -16.843560 -1.140694 -3.911734 56.459041 -1.987895 -9.440947 11.423676 -2.762800 0.000000 -55.204500 -8.701309 0.469445 2.053051 -2.592269 0.956163 -2.497954 -6.547070 0.882464 1.150548 7.817320 -2.496104 -4.126935 -3.644006 -0.304197 0.721771 0.000000 0.000000 0.000000 -8.413291 10.971303 2.073119 -63.715375 4.096818 2.325191 -4.782728 -17.178650 -0.017170 -11.256795 6.607804 -0.647270 -0.115803 -0.020089 0.000000 0.000000 0.000000 0.000000 0.000000 0.000000 0.000000 13.821561 1.080332 0.033709 64.012958 18.273389 27.429457 1.998205 54.361358 0.023414 9.298275 7.763390 0.652160 -0.056567 -0.189666 0.000000 0.000000 0.000000 0.000000 0.000000 0.000000 0.000000 
